HIERARCHY
ROOT hip
{
	OFFSET 0.000000 0.000000 0.000000 
	CHANNELS 6 Xposition Yposition Zposition Xrotation Zrotation Yrotation
	JOINT abdomen
	{
		OFFSET 0.000000 3.402643 0.000000 
		CHANNELS 3 Xrotation Zrotation Yrotation
		JOINT chest
		{
			OFFSET 0.000000 8.438565 -0.680529 
			CHANNELS 3 Xrotation Zrotation Yrotation
			JOINT neck
			{
				OFFSET 0.000000 10.207942 -0.272212 
				CHANNELS 3 Xrotation Zrotation Yrotation
				JOINT head
				{
					OFFSET 0.000000 3.130431 0.000000 
					CHANNELS 3 Xrotation Zrotation Yrotation
					End Site
					{
						OFFSET 0.000000 3.130435 0.000000 
					}
				}
			}
			JOINT lCollar
			{
				OFFSET 3.470700 6.669187 -0.816635 
				CHANNELS 3 Yrotation Zrotation Xrotation
				JOINT lShldr
				{
					OFFSET 3.198488 0.000000 0.000000 
					CHANNELS 3 Zrotation Yrotation Xrotation
					JOINT lForeArm
					{
						OFFSET 10.139888 0.000000 0.000000 
						CHANNELS 3 Yrotation Zrotation Xrotation
						JOINT lHand
						{
							OFFSET 8.370511 0.000000 0.000000 
							CHANNELS 3 Zrotation Yrotation Xrotation
							End Site
							{
								OFFSET 4.083176 0.000000 0.000000 
							}
						}
					}
				}
			}
			JOINT rCollar
			{
				OFFSET -3.470700 6.669187 -0.816635 
				CHANNELS 3 Yrotation Zrotation Xrotation
				JOINT rShldr
				{
					OFFSET -3.198488 0.000000 0.000000 
					CHANNELS 3 Zrotation Yrotation Xrotation
					JOINT rForeArm
					{
						OFFSET -10.139888 0.000000 0.000000 
						CHANNELS 3 Yrotation Zrotation Xrotation
						JOINT rHand
						{
							OFFSET -8.370511 0.000000 0.000000 
							CHANNELS 3 Zrotation Yrotation Xrotation
							End Site
							{
								OFFSET -4.083176 0.000000 0.000000 
							}
						}
					}
				}
			}
		}
	}
	JOINT lThigh
	{
		OFFSET 5.308129 -1.633274 1.361059 
		CHANNELS 3 Xrotation Zrotation Yrotation
		JOINT lShin
		{
			OFFSET -2.041588 -20.007561 0.000000 
			CHANNELS 3 Xrotation Zrotation Yrotation
			JOINT lFoot
			{
				OFFSET 0.000000 -19.190928 -1.224953 
				CHANNELS 3 Xrotation Yrotation Zrotation
				End Site
				{
					OFFSET 0.000000 -2.449906 4.627600 
				}
			}
		}
	}
	JOINT rThigh
	{
		OFFSET -5.308129 -1.633274 1.361059 
		CHANNELS 3 Xrotation Zrotation Yrotation
		JOINT rShin
		{
			OFFSET 2.041588 -20.007561 0.000000 
			CHANNELS 3 Xrotation Zrotation Yrotation
			JOINT rFoot
			{
				OFFSET 0.000000 -19.190928 -1.224953 
				CHANNELS 3 Xrotation Yrotation Zrotation
				End Site
				{
					OFFSET 0.000000 -2.449906 4.627600 
				}
			}
		}
	}
}
MOTION
Frames: 15
Frame Time: 0.011111
82.587219 51.661396 6.285420 -2.400540 2.838543 -86.422974 24.103954 -7.356639 8.711510 -30.226879 -1.536397 3.153913 -9.103211 5.439155 12.747290 2.863076 1.119976 27.279827 -10.275489 -5.709454 -1.550532 -71.658417 -18.427851 8.371764 -52.982155 8.320758 9.374481 8.524705 12.647240 -66.673225 5.831508 6.350754 -0.460990 72.475548 8.143375 17.301800 63.333073 -9.447538 13.916481 -8.534408 -12.637552 52.533058 -6.886803 3.706108 3.176623 30.173553 -5.323450 -4.877233 -30.409321 -5.391062 -4.693556 -6.795861 -12.185387 -2.606871 23.148067 5.653056 3.921994 -28.813351 -3.264593 0.163536 
82.573036 51.671185 6.232755 -2.330781 2.901668 -86.093010 23.955992 -7.663125 9.194057 -30.117815 -1.077253 3.292280 -10.486128 5.346615 13.385813 5.674337 1.829215 28.586733 -10.275489 -5.709454 -1.550532 -71.957680 -18.852428 10.115472 -53.161301 8.355022 9.447359 8.524705 12.647240 -66.311905 5.831508 6.350754 -0.460990 72.623192 8.641683 14.795703 62.054462 -9.406844 13.341026 -8.534408 -12.637552 51.839703 -7.036064 3.786095 2.928089 30.183016 -5.328426 -4.869644 -30.374613 -5.356582 -4.689714 -6.735565 -12.093772 -2.844460 23.120096 5.643412 3.917577 -28.726604 -3.365628 0.130076 
82.554466 51.674900 6.181777 -2.196717 2.895216 -85.681793 23.876928 -7.852509 9.622020 -29.980080 -0.691206 3.409220 -10.457648 5.511761 13.784215 6.245907 1.534342 29.411375 -10.275489 -5.709454 -1.550532 -72.204788 -19.337088 11.747608 -53.319942 8.387950 9.519079 8.524705 12.647240 -65.931046 5.831508 6.350754 -0.460990 72.887375 9.143389 12.040916 60.765278 -9.335158 12.753610 -8.534408 -12.637552 51.204933 -7.156311 3.944328 2.649067 30.232309 -5.328346 -4.883687 -30.288559 -5.444411 -4.723518 -6.502177 -11.929507 -3.206187 23.005465 5.663481 3.891301 -28.570326 -3.474376 0.105264 
82.536911 51.674900 6.130463 -2.081972 2.860537 -85.203522 23.812223 -7.928299 9.910651 -29.901442 -0.424246 3.481046 -10.385590 5.487808 14.237155 6.700156 1.430571 30.314049 -10.275489 -5.709454 -1.550532 -72.420448 -19.646673 13.259947 -53.613445 8.433598 9.630165 8.524705 12.647240 -65.276749 5.831508 6.350754 -0.460990 73.282753 9.522433 9.021370 59.475765 -9.232060 12.176164 -8.534408 -12.637552 50.091656 -7.244330 4.081069 2.358557 30.273649 -5.317852 -4.885368 -30.176786 -5.543187 -4.798590 -6.238636 -11.773368 -3.528765 22.906820 5.653512 3.890413 -28.479292 -3.617121 0.066085 
82.515976 51.677269 6.079485 -2.007047 2.876030 -84.697594 23.702761 -8.085928 10.194252 -29.881388 -0.251088 3.562792 -10.167659 5.857302 14.249810 6.898575 0.890008 30.422218 -10.275489 -5.709454 -1.550532 -72.545204 -19.789764 15.105701 -54.152210 8.532746 9.862569 8.524705 12.647240 -64.270882 5.831508 6.350754 -0.460990 73.760704 9.861842 5.706403 58.326839 -9.118881 11.665321 -8.534408 -12.637552 48.724464 -7.381613 4.178985 2.128305 30.364058 -5.308505 -4.900591 -30.063686 -5.705178 -4.883199 -5.964613 -11.683994 -3.881203 22.743700 5.663727 3.867627 -28.377590 -3.751055 -0.000431 
82.486954 51.677605 6.033571 -1.909013 2.860552 -84.182930 23.585604 -8.321426 10.648630 -29.744122 -0.129661 3.697515 -10.346438 6.335546 14.261192 7.506102 0.234303 30.568850 -10.275489 -5.709454 -1.550532 -72.605919 -20.050274 16.982868 -54.795742 8.637835 10.133583 8.524705 12.647240 -63.421276 5.831508 6.350754 -0.460990 74.342690 10.311593 2.111065 57.338852 -9.004734 11.231669 -8.534408 -12.637552 47.327984 -7.503427 4.312456 1.955557 30.493752 -5.303580 -4.910682 -30.014174 -5.934114 -5.021292 -5.671213 -11.565540 -4.262990 22.530561 5.672022 3.840982 -28.265760 -3.891465 -0.036728 
82.462982 51.677269 5.990360 -1.663724 2.866310 -83.602333 23.448879 -8.350337 11.105306 -29.538744 -0.004565 3.822248 -10.212052 6.672160 14.102733 7.165195 -0.431676 30.317051 -10.275489 -5.709454 -1.550532 -72.811501 -20.447836 18.262877 -55.228783 8.705491 10.318685 8.524705 12.647240 -62.474010 5.831508 6.350754 -0.460990 74.823402 10.789306 -1.324729 56.374191 -8.882098 10.823606 -8.534408 -12.637552 45.843605 -7.712939 4.569171 1.658276 30.623672 -5.299150 -4.911213 -29.915302 -6.142434 -5.163338 -5.339532 -11.263070 -4.464904 22.319376 5.672717 3.802351 -28.247177 -4.156267 -0.151497 
82.444077 51.679630 5.945459 -1.446360 2.852531 -82.960587 23.350239 -8.326021 11.424194 -29.353233 0.096629 3.891120 -10.007682 6.659040 14.169198 6.987852 -0.466956 30.446688 -10.275489 -5.709454 -1.550532 -73.036186 -20.799332 19.223209 -56.192593 8.849706 10.727458 8.524705 12.647240 -62.688850 5.831508 6.350754 -0.460990 75.138428 11.179349 -4.184979 55.401066 -8.743980 10.402921 -8.534408 -12.637552 44.720562 -7.944052 4.791629 1.340643 30.762400 -5.293408 -4.951850 -29.816877 -6.355577 -5.273540 -5.027946 -10.972520 -4.536914 22.113382 5.691900 3.777578 -28.321005 -4.605440 -0.376614 
82.425171 51.680637 5.901233 -1.410051 2.858016 -82.335190 23.275997 -8.411195 11.548814 -29.197149 0.197037 3.931384 -9.870127 6.582716 14.225199 6.642888 -0.517782 30.512117 -10.275489 -5.709454 -1.550532 -73.249191 -21.068995 20.026102 -56.807194 8.932959 10.995814 8.524705 12.647240 -61.604870 5.831508 6.350754 -0.460990 75.390076 11.444198 -6.417897 54.544464 -8.605621 10.033216 -8.534408 -12.637552 44.095558 -8.123931 4.852921 1.130315 30.902166 -5.289053 -4.953262 -29.680283 -6.661630 -5.469550 -4.744263 -10.863077 -4.581182 21.919178 5.701976 3.761759 -28.344944 -5.084335 -0.608648 
82.412338 51.683678 5.868824 -1.336194 2.989098 -81.559204 23.091085 -8.337773 11.515497 -29.060843 0.166662 3.913898 -9.800416 6.591090 14.264825 6.427487 -0.705751 30.578526 -10.275489 -5.709454 -1.550532 -73.423721 -21.291561 20.542355 -57.390419 9.005282 11.244336 8.524705 12.647240 -60.413467 5.831508 6.350754 -0.460990 75.650581 11.552790 -8.136862 53.880383 -8.496665 9.762148 -8.534408 -12.637552 43.451031 -8.472963 4.871032 0.738475 31.021900 -5.279515 -4.980693 -29.463339 -6.918798 -5.610719 -4.606823 -10.763439 -4.700210 21.778650 5.701115 3.729875 -28.553604 -5.590338 -0.905802 
82.395462 51.688068 5.841815 -1.237815 3.126976 -80.783096 22.789299 -8.536653 11.862903 -28.953135 0.206489 4.018329 -9.646685 6.744465 14.102877 6.269667 -0.837138 30.302067 -10.275489 -5.709454 -1.550532 -73.498901 -21.435453 21.414202 -57.910789 9.067960 11.482783 8.524705 12.647240 -59.661510 5.831508 6.350754 -0.460990 75.990181 11.572192 -10.051001 53.405319 -8.408570 9.560943 -8.534408 -12.637552 42.767441 -8.810705 4.907559 0.326343 31.092920 -5.259870 -5.020551 -29.224888 -7.087250 -5.707543 -4.490328 -10.667772 -4.897648 21.697485 5.702542 3.722196 -28.837341 -6.024579 -1.172046 
82.373520 51.686378 5.797253 -1.220145 3.032495 -80.354332 22.672096 -9.121295 12.690162 -28.941776 0.168976 4.305201 -9.385048 6.827672 13.876050 5.912087 -0.429481 29.902975 -10.275489 -5.709454 -1.550532 -73.322815 -21.441807 22.684036 -58.303822 9.109977 11.645132 8.524705 12.647240 -59.192760 5.831508 6.350754 -0.460990 76.575447 11.580658 -12.069297 53.037376 -8.343543 9.412806 -8.534408 -12.637552 42.142433 -8.814363 4.968400 0.286711 31.153500 -5.254571 -5.015504 -29.024530 -7.332459 -5.851273 -4.208429 -10.582889 -5.050015 21.617071 5.702145 3.705388 -29.024147 -6.204185 -1.289553 
82.352592 51.680981 5.744925 -1.215065 2.919124 -79.957756 22.725529 -9.435216 13.115111 -28.853346 0.300649 4.451797 -9.356939 6.949738 13.777287 5.722846 -0.650773 29.715721 -10.275489 -5.709454 -1.550532 -73.390709 -21.574343 23.331751 -58.707191 9.150953 11.828731 8.524705 12.647240 -58.870499 5.831508 6.350754 -0.460990 76.694923 11.643617 -13.061038 52.721474 -8.280521 9.267102 -8.534408 -12.637552 41.605328 -8.759352 5.068121 0.372218 31.161638 -5.264262 -5.027663 -28.823015 -7.642924 -6.027111 -3.894574 -10.491027 -5.251194 21.534081 5.710745 3.699841 -29.156292 -6.346123 -1.399131 
82.329292 51.680298 5.701036 -1.208053 2.914498 -79.415558 22.756428 -9.424869 13.074330 -28.736635 0.309613 4.431505 -9.485962 6.501563 14.097363 5.687681 -0.087646 30.245352 -10.275489 -5.709454 -1.550532 -73.455170 -21.766052 23.288044 -59.026638 9.183338 11.968422 8.524705 12.647240 -58.597061 5.831508 6.350754 -0.460990 76.667473 11.709280 -13.306622 52.532558 -8.247415 9.203054 -8.534408 -12.637552 41.146347 -8.826817 5.116392 0.324328 31.182566 -5.254617 -5.037522 -28.614946 -7.995955 -6.220056 -3.680508 -10.443686 -5.520553 21.440414 5.721406 3.692848 -29.339413 -6.530329 -1.543782 
82.310051 51.687393 5.664913 -1.140790 2.991705 -78.885857 22.675997 -9.371531 13.100829 -28.697678 0.296855 4.432416 -9.712566 6.682897 14.201119 6.221896 -0.509491 30.476488 -10.275489 -5.709454 -1.550532 -73.503426 -21.855000 23.198771 -59.176888 9.201621 12.035928 8.524705 12.647240 -58.450573 5.831508 6.350754 -0.460990 76.698425 11.614522 -13.432133 52.542358 -8.244609 9.195028 -8.534408 -12.637552 40.980328 -9.029180 5.183142 0.181585 31.181801 -5.264122 -5.020562 -28.472597 -8.288646 -6.375194 -3.564161 -10.359103 -5.776442 21.329655 5.720696 3.673345 -29.456274 -6.696583 -1.659764 
